<svg xmlns="http://www.w3.org/2000/svg" viewBox="0 0 512 512" width="512" height="512">
  <defs>
    <linearGradient id="bg" x1="0" y1="0" x2="1" y2="1">
      <stop offset="0%" stop-color="#2563eb"/>
      <stop offset="100%" stop-color="#d97706"/>
    </linearGradient>
  </defs>
  <rect width="512" height="512" rx="96" fill="url(#bg)"/>
  <g transform="translate(96 112) scale(13.33)" fill="#fff">
    <path d="M14 6a3.5 3.5 0 0 1 3.5 3.5c0 1.7-1.2 3.1-2.1 4-1 1-2.6 2.3-4.4 3.5C9.2 17.6 7.7 19 6.4 19c-1.3 0-2.4-1-2.4-2.3 0-1.9 1.6-3 3.3-4.1.7-.4 1.2-.7 1.7-1V10c0-1.1.4-2.2 1.2-3 .8-.8 1.8-1.2 2.9-1.2.3 0 .6 0 .9.1V6Z"/>
    <path d="M22 6a3.5 3.5 0 0 0-3.5 3.5c0 1.7 1.2 3.1 2.1 4 1 1 2.6 2.3 4.4 3.5 1.8 1.6 3.3 3 4.6 3 1.3 0 2.4-1 2.4-2.3 0-1.9-1.6-3-3.3-4.1-.7-.4-1.2-.7-1.7-1V10c0-1.1-.4-2.2-1.2-3-.8-.8-1.8-1.2-2.9-1.2-.3 0-.6 0-.9.1V6Z"/>
  </g>
</svg>
